<?xml version="1.0" encoding="utf-8"?>
<!-- Svg Vector Icons : http://www.onlinewebfonts.com/icon -->
<!DOCTYPE svg PUBLIC "-//W3C//DTD SVG 1.1//EN" "http://www.w3.org/Graphics/SVG/1.1/DTD/svg11.dtd">
<svg version="1.1" xmlns="http://www.w3.org/2000/svg" xmlns:xlink="http://www.w3.org/1999/xlink" x="0px" y="0px" viewBox="0 0 1000 1000" enable-background="new 0 0 1000 1000" xml:space="preserve">
<metadata> Svg Vector Icons : http://www.onlinewebfonts.com/icon </metadata>
<g><g transform="translate(0.000000,512.000000) scale(0.100000,-0.100000)"><path d="M4781.3,4993c-216.8-51.8-448.8-230.2-556.3-427.7c-138.1-257-138.1-592.7,1.9-849.8c63.3-117,259-301.1,379.8-360.6l90.2-44.1l-11.5-86.3c-5.8-48-11.5-214.8-11.5-370.2v-285.8h-542.8h-542.8l-67.1,69.1c-109.3,113.2-197.6,151.5-362.5,151.5c-163,0-255.1-38.4-356.8-147.7c-103.6-109.3-132.3-182.2-132.3-341.4c0-159.2,28.8-232.1,132.3-341.4c101.7-109.3,193.7-147.7,356.8-147.7c165,0,253.2,38.4,362.5,151.5l67.1,69h531.3h531.3l-7.7-176.5c-5.8-97.8-34.5-1083.8-65.2-2192.5c-32.6-1106.8-67.1-2090.8-76.7-2186.7c-30.7-264.7-90.2-445-174.6-529.4c-212.9-212.9-759.6-228.3-1160.5-36.4c-410.5,197.6-782.6,571.6-1030,1035.8c-140,264.7-143.9,249.4,71,249.4c203.3,0,241.7,9.6,241.7,55.6c0,49.9-861.3,1239.1-901.5,1244.9c-19.2,3.8-44.1-9.6-53.7-28.8c-26.9-51.8-368.3-1377.2-368.3-1430.9c0-26.9,13.4-53.7,30.7-59.5c17.3-5.8,115.1,21.1,220.6,63.3l189.9,74.8l21.1-80.5c113.2-420.1,287.7-826.7,491.1-1133.7c168.8-253.2,523.7-610,773-774.9c387.5-257,868.9-450.8,1459.7-583.1c324.2-72.9,454.6-126.6,596.6-247.4l92.1-74.8l92.1,74.8c142,120.8,272.4,174.6,596.6,247.4c851.7,191.8,1409.8,469.9,1874,934.1c406.7,408.6,636.8,822.9,832.5,1500l38.4,138.1l189.9-74.8c201.4-78.7,251.3-80.6,251.3-5.7c0,53.7-341.4,1383-368.3,1432.8c-9.6,19.2-34.5,32.6-53.7,28.8c-42.2-5.8-901.5-1195-901.5-1244.9c0-46,38.4-55.6,241.7-55.6c209.1,0,203.3,7.7,107.4-182.2c-251.3-502.6-669.4-924.6-1108.7-1124c-322.3-147.7-790.3-151.5-1030-11.5c-103.6,61.4-151.5,122.8-193.8,251.3c-72.9,216.7-88.2,454.6-145.8,2524.3c-30.7,1124-61.4,2117.6-67.1,2211.6l-9.6,166.9h533.2h533.2l67.1-69c109.3-113.2,197.6-151.5,362.5-151.5c163,0,255.1,38.4,356.8,147.7c103.6,109.3,132.4,182.2,132.4,341.4c0,159.2-28.8,232.1-132.4,341.4c-101.7,109.3-193.7,147.7-356.8,147.7c-165,0-253.2-38.4-362.5-151.5l-67.1-69.1h-542.8h-542.8v285.8c0,155.4-5.8,322.3-11.5,370.2l-11.5,86.3l90.2,44.1c120.8,59.5,303.1,230.2,372.1,352.9c149.6,260.9,153.4,592.7,9.6,857.4c-65.2,117-234,285.8-351,351C5232.1,5019.9,5003.8,5046.7,4781.3,4993z M5220.6,4586.4c90.1-46,182.2-140,232.1-234c25-48,36.5-107.4,36.5-211c0-159.2-28.8-232.1-132.4-341.4c-101.7-109.3-193.7-147.7-356.8-147.7c-163,0-255.1,38.4-356.8,147.7c-103.6,109.3-132.4,182.2-132.4,341.4c0,159.2,28.8,232.1,132.4,341.4c59.5,65.2,134.3,111.3,222.5,140C4944.4,4649.7,5138.1,4628.5,5220.6,4586.4z"/></g></g>
</svg>